<svg height="512" viewBox="0 0 64 64" width="512" xmlns="http://www.w3.org/2000/svg"><g id="Icons"><g><path d="m56 26.997v28c0 .55-.45 1-1 1-11.237 0-38.548 0-46 0-.55 0-1-.45-1-1v-28c0-.55.45-1 1-1h46c.55 0 1 .45 1 1z" fill="#00a0c8"/><path d="m32 44.997h-22v9c0 .55.45 1 1 1h11c.001.798.89 1.273 1.554.83l.891-.594c.336-.224.773-.224 1.109 0l.891.594c.664.443 1.553-.033 1.554-.83h1c1.65 0 3-1.35 3-3 0 1.66 1.34 3 3 3h18c.55 0 1-.45 1-1v-9z" fill="#0082aa"/><path d="m32 43.997v7c0 1.65-1.35 3-3 3h-18c-.55 0-1-.45-1-1v-9z" fill="#d2d2d2"/><path d="m54 43.997v9c0 .55-.45 1-1 1h-18c-1.66 0-3-1.34-3-3v-7z" fill="#b4b4b4"/><path d="m54 23v23c0 .55-.45 1-1 1h-17c-2.21 0-4 1.79-4 4v-25c0-2.21 1.79-4 4-4h17c.55 0 1 .45 1 1z" fill="#d2d2d2"/><path d="m32 26v25c0-2.21-1.79-4-4-4h-17c-.55 0-1-.45-1-1v-23c0-.55.45-1 1-1h17c2.21 0 4 1.79 4 4z" fill="#f0f0f0"/><path d="m26.445 54.827-.891-.594c-.336-.224-.774-.224-1.109 0l-.891.594c-.664.443-1.554-.033-1.554-.832v-3.998h6v3.998c0 .799-.89 1.275-1.555.832z" fill="#c80a50"/><path d="m22 49.997h6v1h-6z" fill="#a00028"/><g fill="#0a5078"><path d="m28 32h-9c-.552 0-1-.448-1-1 0-.552.448-1 1-1h9c.552 0 1 .448 1 1 0 .552-.448 1-1 1z"/><path d="m18 28h-5c-.552 0-1-.448-1-1 0-.552.448-1 1-1h5c.552 0 1 .448 1 1 0 .552-.448 1-1 1z"/><path d="m16 32h-3c-.552 0-1-.448-1-1 0-.552.448-1 1-1h3c.552 0 1 .448 1 1 0 .552-.448 1-1 1z"/><path d="m24 34h4c.552 0 1 .448 1 1 0 .552-.448 1-1 1h-4c-.552 0-1-.448-1-1 0-.552.448-1 1-1z"/><path d="m13 34h8c.552 0 1 .448 1 1 0 .552-.448 1-1 1h-8c-.552 0-1-.448-1-1 0-.552.448-1 1-1z"/><path d="m15 40h-2c-.552 0-1-.448-1-1 0-.552.448-1 1-1h2c.552 0 1 .448 1 1 0 .552-.448 1-1 1z"/><path d="m28 40h-10c-.552 0-1-.448-1-1 0-.552.448-1 1-1h10c.552 0 1 .448 1 1 0 .552-.448 1-1 1z"/><path d="m25 42h3c.552 0 1 .448 1 1 0 .552-.448 1-1 1h-3c-.552 0-1-.448-1-1 0-.552.448-1 1-1z"/><path d="m13 42h9c.552 0 1 .448 1 1 0 .552-.448 1-1 1h-9c-.552 0-1-.448-1-1 0-.552.448-1 1-1z"/><path d="m36 32h9c.552 0 1-.448 1-1 0-.552-.448-1-1-1h-9c-.552 0-1 .448-1 1 0 .552.448 1 1 1z"/><path d="m46 28h5c.552 0 1-.448 1-1 0-.552-.448-1-1-1h-5c-.552 0-1 .448-1 1 0 .552.448 1 1 1z"/><path d="m48 32h3c.552 0 1-.448 1-1 0-.552-.448-1-1-1h-3c-.552 0-1 .448-1 1 0 .552.448 1 1 1z"/><path d="m40 34h-4c-.552 0-1 .448-1 1 0 .552.448 1 1 1h4c.552 0 1-.448 1-1 0-.552-.448-1-1-1z"/><path d="m51 34h-8c-.552 0-1 .448-1 1 0 .552.448 1 1 1h8c.552 0 1-.448 1-1 0-.552-.448-1-1-1z"/><path d="m49 40h2c.552 0 1-.448 1-1 0-.552-.448-1-1-1h-2c-.552 0-1 .448-1 1 0 .552.448 1 1 1z"/><path d="m36 40h10c.552 0 1-.448 1-1 0-.552-.448-1-1-1h-10c-.552 0-1 .448-1 1 0 .552.448 1 1 1z"/><path d="m39 42h-3c-.552 0-1 .448-1 1 0 .552.448 1 1 1h3c.552 0 1-.448 1-1 0-.552-.448-1-1-1z"/><path d="m51 42h-9c-.552 0-1 .448-1 1 0 .552.448 1 1 1h9c.552 0 1-.448 1-1 0-.552-.448-1-1-1z"/></g><path d="m32 36.142c-.828 0-1.5-.672-1.5-1.5v-4c0-.828.672-1.5 1.5-1.5.828 0 1.5.672 1.5 1.5v4c0 .829-.672 1.5-1.5 1.5z" fill="#c80a50"/><circle cx="32" cy="20.5" fill="#c80a50" r="12.5"/><path d="m31.296 14.707c.391.391 1.023.391 1.414 0s.391-1.023 0-1.414l-1-1c-.391-.391-1.023-.391-1.414 0s-.391 1.023 0 1.414z" fill="#a00028"/><path d="m38.013 27.141c-1.803-1.075-3.569-2.013-4.993-3.233 1.536-1.762 2.755-3.767 3.291-5.908h.689c.553 0 1-.448 1-1s-.447-1-1-1h-10c-.553 0-1 .448-1 1s.447 1 1 1h7.227c-.496 1.583-1.444 3.096-2.615 4.461-.443-.556-.851-1.18-1.218-1.91-.247-.493-.846-.693-1.343-.445-.493.248-.692.849-.444 1.342.485.965 1.029 1.768 1.618 2.474-1.36 1.298-2.86 2.403-4.234 3.217-.476.282-.632.895-.351 1.37.282.478.897.63 1.37.351 1.54-.913 3.16-2.105 4.623-3.504 1.603 1.392 3.461 2.371 5.354 3.502.476.283 1.089.127 1.371-.346.284-.474.128-1.088-.345-1.371z" fill="#a00028"/><path d="m32.003 14c-.256 0-.512-.098-.707-.293l-1-1c-.391-.391-.391-1.023 0-1.414s1.023-.391 1.414 0l1 1c.391.391.391 1.023 0 1.414-.195.195-.451.293-.707.293z" fill="#f0f0f0"/><path d="m37 17h-10c-.553 0-1-.448-1-1s.447-1 1-1h10c.553 0 1 .448 1 1s-.447 1-1 1z" fill="#f0f0f0"/><path d="m26.501 28c-.342 0-.675-.175-.861-.49-.281-.475-.125-1.088.351-1.37 3.498-2.073 7.829-6.014 8.522-10.299.089-.545.591-.917 1.147-.828.545.088.915.602.827 1.147-.804 4.962-5.423 9.298-9.478 11.701-.159.094-.335.139-.508.139z" fill="#f0f0f0"/><path d="m37.499 28c-.174 0-.351-.045-.512-.141-.385-.23-.762-.45-1.13-.665-2.934-1.713-5.466-3.191-7.251-6.745-.248-.493-.049-1.094.444-1.342.497-.247 1.096-.048 1.343.445 1.519 3.023 3.705 4.299 6.472 5.915.374.218.756.441 1.147.675.474.283.629.897.346 1.372-.186.312-.518.486-.859.486z" fill="#f0f0f0"/></g></g></svg>